<svg width="800" height="800" viewBox="0 0 800 800" fill="none" xmlns="http://www.w3.org/2000/svg">
<rect width="800" height="800" fill="white"/>
<path d="M560.214 524.966C564.199 535.45 572.401 542.39 584.589 545.057C593.769 547.065 596.933 551.376 597.01 559.632C597.049 569.421 591.424 574.864 580.878 574.9C561.042 574.955 541.205 574.948 521.369 574.941C514.76 574.939 508.151 574.936 501.542 574.936C492.921 574.936 484.304 574.94 475.689 574.944C458.462 574.953 441.242 574.961 424.004 574.936C413.692 574.936 408.223 570.297 407.559 561.129C406.895 551.96 412.091 545.459 421.856 544.728C444.238 543.085 452.637 531.14 453.301 511.342C453.918 492.88 450.822 474.761 447.722 456.623C446.903 451.83 446.084 447.035 445.333 442.232C442.746 425.619 440.329 408.984 437.912 392.345C435.839 378.072 433.764 363.795 431.582 349.526C431.075 346.202 429.511 340.905 427.325 340.357C423.062 339.287 421.701 342.696 420.457 345.814C420.172 346.525 419.895 347.221 419.59 347.846C415.151 356.901 410.706 365.95 406.262 374.997C391.971 404.089 377.687 433.168 363.653 462.395C349.083 492.786 337.95 524.346 329.396 556.673C329.237 557.245 329.085 557.82 328.933 558.396C328.561 559.805 328.188 561.215 327.717 562.589C324.278 572.781 321.075 574.973 309.669 574.973C288.029 574.973 287.208 574.717 282.131 555.211C270.881 512.1 251.568 471.966 232.237 431.793C231.029 429.283 229.821 426.772 228.615 424.261C223.131 412.885 217.721 401.479 212.309 390.071C205.887 376.532 199.463 362.989 192.913 349.489C192.166 347.918 190.545 346.705 188.92 345.488C188.166 344.923 187.41 344.357 186.741 343.755C186.22 344.502 185.592 345.227 184.967 345.949C183.669 347.448 182.382 348.933 182.092 350.585C181.673 353.025 181.254 355.465 180.835 357.905C173.127 402.768 165.419 447.635 158.343 492.567C157.014 501.224 157.757 510.429 159.124 519.159C161.194 532.528 171.428 541.258 185.608 543.633C186.117 543.72 186.628 543.805 187.139 543.89C189.176 544.229 191.219 544.568 193.186 545.093C201.858 547.395 206.35 554.115 205.022 562.589C203.694 570.809 198.42 574.973 188.889 574.973C156.468 575.009 124.046 575.009 91.6634 574.973C83.0698 574.973 77.2495 570.407 76.2339 563.175C74.9449 553.859 79.0073 546.628 87.8354 545.166C101.507 542.902 109.71 534.719 113.265 523.47C118.968 505.388 123.851 486.942 127.405 468.385C137.327 416.115 146.546 363.735 155.725 311.318C160.569 290.352 161.428 286.516 156.194 281.622C154.085 279.649 123.46 254.92 120.999 253.349C107.913 245.058 102.132 239.725 106.507 230.775C109.331 224.939 128.058 224.984 135.628 225.002C136.017 225.003 136.376 225.004 136.702 225.004C158.089 225.073 179.461 225.07 200.818 225.067C213.631 225.065 226.438 225.063 239.24 225.077C239.482 225.077 239.725 225.076 239.967 225.074C240.934 225.068 241.896 225.063 242.833 225.15C250.959 225.844 255.334 229.205 256.233 236.839C259.591 265.44 270.334 291.959 281.935 318.258C294.708 347.269 307.574 376.237 320.444 405.211C324.183 413.63 327.923 422.049 331.661 430.47C331.785 430.738 331.89 431.019 331.995 431.302C332.22 431.908 332.446 432.518 332.872 432.991C333.776 434.033 334.82 434.99 335.86 435.942C336.168 436.224 336.475 436.506 336.779 436.789C337.208 436.388 337.695 436.013 338.181 435.639C339.197 434.856 340.209 434.077 340.685 433.065C342.701 428.98 344.581 424.843 346.459 420.709C348.075 417.154 349.69 413.601 351.387 410.088C356.738 399.033 362.174 388.014 367.609 376.996C379.397 353.102 391.183 329.212 402.09 304.963C407.535 292.9 410.774 279.945 414.001 267.04C414.849 263.648 415.696 260.26 416.582 256.892C417.75 252.458 417.25 247.574 416.769 242.865C416.719 242.376 416.669 241.889 416.621 241.405C415.528 230.301 419.864 225.442 431.894 225.077C434.409 224.975 436.904 224.998 439.407 225.021C440.481 225.031 441.557 225.041 442.637 225.041H510.136C520.058 225.041 529.94 225.041 539.862 225.004C540.185 225.004 540.541 225.003 540.925 225.002C548.488 224.984 567.234 224.939 570.096 230.849C574.472 239.798 568.69 245.131 555.605 253.422C553.144 254.993 523.69 281.475 522.05 283.813C517.593 290.16 519.545 302.865 520.353 308.127C520.466 308.861 520.557 309.45 520.604 309.857C520.683 310.369 520.761 310.843 520.878 311.355L520.722 311.209C521.152 314.715 541.465 436.534 551.542 493.882C553.378 504.402 556.385 514.885 560.214 524.966Z" fill="#2C2B2B"/>
<path d="M603.764 467.576C603.999 499.281 630.366 524.156 663.529 524.047C697.201 523.902 724.271 498.514 723.998 467.321C723.685 436.309 696.654 411.616 663.218 411.725C630.054 411.835 603.531 436.746 603.764 467.576Z" fill="#2C2B2B"/>
</svg>
